<?xml version="1.0" standalone="no"?><!DOCTYPE svg PUBLIC "-//W3C//DTD SVG 1.1//EN" "http://www.w3.org/Graphics/SVG/1.1/DTD/svg11.dtd"><svg t="1558343078432" class="icon" style="" viewBox="0 0 1024 1024" version="1.1" xmlns="http://www.w3.org/2000/svg" p-id="1975" xmlns:xlink="http://www.w3.org/1999/xlink" width="200" height="200"><defs><style type="text/css"></style></defs><path d="M636.7744 602.077867c68.386133-124.689067 93.201067-243.131733 93.201067-243.131734H500.155733V271.701333h273.373867v-37.444266H500.155733V103.3216h-124.296533v130.935467H127.4368v37.444266h248.4224v87.2448H164.744533v37.444267h428.612267c0 6.229333 0 6.229333-6.2464 12.475733 0 43.690667-31.061333 105.966933-55.893333 155.886934-316.808533-124.672-410.0096-49.92-434.858667-37.444267-211.234133 149.6576-12.458667 336.622933 18.602667 330.513067 223.5904 49.937067 366.455467-43.690667 465.92-162.133334 6.229333 6.2464 12.475733 6.2464 18.5856 6.2464 39.338667 21.572267 247.330133 122.914133 416.256 204.731734l8.1408-173.6704c-154.948267-51.694933-321.28-108.936533-387.089067-130.9184z m-161.450667 56.029866c-155.357867 199.5776-341.640533 137.1648-372.701866 124.689067-74.496-18.722133-99.464533-155.904-6.2464-199.5776 155.3408-49.937067 291.976533 6.229333 391.424 56.149333-6.2464 12.4928-12.475733 18.7392-12.475734 18.7392z" fill="#000000" p-id="1976"></path></svg>