<?xml version="1.0" standalone="no"?><!DOCTYPE svg PUBLIC "-//W3C//DTD SVG 1.1//EN" "http://www.w3.org/Graphics/SVG/1.1/DTD/svg11.dtd"><svg t="1558343385804" class="icon" style="" viewBox="0 0 1024 1024" version="1.1" xmlns="http://www.w3.org/2000/svg" p-id="3907" xmlns:xlink="http://www.w3.org/1999/xlink" width="200" height="200"><defs><style type="text/css"></style></defs><path d="M214.499375 537.072485c101.096727-21.721212 87.319273-142.739394 84.278303-169.115152-4.964848-40.773818-52.751515-112.050424-117.822061-106.418424-81.811394 7.338667-93.758061 125.672727-93.758061 125.672727-11.062303 54.690909 26.499879 171.597576 127.301819 149.860849z m107.333818 210.354424a86.016 86.016 0 0 0-3.878788 49.229576 55.854545 55.854545 0 0 0 48.09697 44.388848h52.953212v-129.582545h-56.676849a62.308848 62.308848 0 0 0-40.494545 35.964121z m80.244363-413.199515c55.854545 0 100.957091-64.310303 100.957091-143.90303S458.040708 46.545455 402.077556 46.545455s-100.972606 64.325818-100.972606 143.778909 45.257697 143.90303 100.972606 143.90303z m240.484849 9.495273c74.596848 9.681455 122.569697-70.050909 132.096-130.49794s-38.43103-130.466909-91.244606-142.506666-119.016727 72.719515-125.005576 128.108606c-7.214545 67.708121 9.665939 135.307636 84.154182 144.896z m182.784 355.296969s-115.448242-89.460364-182.81503-186.088727c-91.353212-142.553212-221.106424-84.542061-264.517819-12.070788s-110.545455 118.334061-120.118303 130.451394-139.465697 82.106182-110.638545 210.230303 129.954909 125.579636 129.954909 125.579637a566.396121 566.396121 0 0 0 161.031758-12.008728 338.928485 338.928485 0 0 1 160.985212 4.763152s202.053818 67.770182 257.365333-62.681212-31.247515-198.17503-31.247515-198.175031zM479.575738 893.160727h-131.382303a115.308606 115.308606 0 0 1-82.230303-56.692363 150.49697 150.49697 0 0 1-10.364121-90.918788 115.308606 115.308606 0 0 1 94.440727-85.162667h69.926788v-86.078061l59.578182 0.915394v317.936485z m244.70497-0.899879h-151.195152c-58.616242-15.127273-61.346909-56.816485-61.346909-56.816484V668.004848l61.346909-0.961939v150.49697a29.370182 29.370182 0 0 0 23.645091 18.97503h62.246788V668.004848h65.303273v224.256z m213.98497-447.084606c0-28.904727-23.970909-115.991273-112.950303-115.991272s-101.019152 82.230303-101.019152 140.272485c0 55.466667 4.654545 132.887273 115.370667 130.327272s98.598788-125.533091 98.598788-154.639515z m0 0" p-id="3908"></path></svg>