<?xml version="1.0" standalone="no"?><!DOCTYPE svg PUBLIC "-//W3C//DTD SVG 1.1//EN" "http://www.w3.org/Graphics/SVG/1.1/DTD/svg11.dtd"><svg t="1558341953016" class="icon" style="" viewBox="0 0 1024 1024" version="1.1" xmlns="http://www.w3.org/2000/svg" p-id="3068" xmlns:xlink="http://www.w3.org/1999/xlink" width="200" height="200"><defs><style type="text/css"></style></defs><path d="M499.057 347.955c27.692 0 45.752-18.662 45.752-45.752 0-27.09-18.662-45.752-45.752-45.752-26.488 0-54.782 17.458-54.782 45.752 0 27.692 28.294 45.752 54.782 45.752zM299.795 301.601c0-27.09-18.662-45.752-45.751-45.752-26.488 0-54.782 17.458-54.782 45.752 0 28.294 28.294 45.752 54.782 45.752 27.691 0.602 45.751-18.06 45.751-45.752z" p-id="3069"></path><path d="M1024 625.477c0-67.424-30.1-132.44-84.28-183.008-53.578-49.966-125.216-80.668-201.067-87.29v-3.612C706.747 203.476 547.819 91.504 368.423 91.504 164.948 91.504 0 232.974 0 406.95 0 499.66 46.956 583.94 136.654 649.557l-30.702 92.708c-2.408 7.224 0 14.448 5.418 19.264 5.418 4.816 13.846 5.418 19.866 2.408l116.788-58.394 13.845 3.01h0.602c36.12 7.224 67.424 13.846 105.952 13.846 7.224 0 34.916-2.408 43.946-6.622 44.548 108.36 163.744 181.201 297.388 181.201 33.712 0 68.025-7.826 102.34-16.254l89.697 48.762c2.408 1.204 5.418 2.408 8.428 2.408 4.214 0 8.428-1.204 11.438-4.214 6.02-4.816 7.826-12.04 6.02-19.264l-22.876-75.25C981.258 772.364 1024 698.32 1024 625.476zM864.47 803.668c-6.02 4.214-8.428 12.04-6.02 18.662l12.642 42.742-54.18-29.498c-2.408-1.204-5.418-2.408-8.428-2.408-1.204 0-3.01 0-4.214 0.602-31.304 7.826-63.811 16.254-95.717 16.254-146.286 0-265.482-100.533-265.482-223.943 0-123.41 119.196-223.944 265.482-223.944 143.877 0 264.88 102.34 264.88 223.944 0.601 61.404-37.927 124.614-108.963 177.59zM181.804 640.527c2.408-7.224 0-15.05-6.622-19.866C90.902 561.665 48.16 490.027 48.16 407.553c0-148.694 143.276-269.695 319.661-269.695 154.112 0 291.97 93.912 322.07 218.525-164.346 3.612-297.388 120.4-297.388 261.87 0 18.662 2.408 37.926 7.826 57.19h-2.408c-9.632 0.602-19.866 1.204-30.1 1.204-34.314 0-63.812-6.02-95.718-12.642l-19.263-3.612c-3.612-0.602-7.826 0-11.438 1.204l-80.066 40.334 20.468-61.404z" p-id="3070"></path><path d="M612.835 509.893c-18.662 0-37.324 18.662-37.324 37.324s18.662 37.324 37.324 37.324c28.294 0 45.752-19.264 45.752-37.324s-17.458-37.324-45.752-37.324zM804.872 509.893c-18.662 0-36.721 18.662-36.721 37.324s18.06 37.324 36.721 37.324c28.294 0 45.752-19.264 45.752-37.324s-17.458-37.324-45.752-37.324z" p-id="3071"></path></svg>